<?xml version="1.0" encoding="UTF-8"?>
<svg width="282.79" height="282.79" viewBox="0 0 282.79007 354.01712" xmlns="http://www.w3.org/2000/svg" xmlns:xlink="http://www.w3.org/1999/xlink">
 <defs>
  <filter id="f">
   <feGaussianBlur stdDeviation="1.6788"/>
  </filter>
  <filter id="g">
   <feGaussianBlur stdDeviation="3.99554"/>
  </filter>
  <linearGradient id="a">
   <stop stop-color="#fff" offset="0"/>
   <stop stop-color="#fff" stop-opacity="0" offset="1"/>
  </linearGradient>
  <linearGradient id="b" x1="156.94" x2="158.64" y1="-45.793" y2="81.906" gradientUnits="userSpaceOnUse">
   <stop stop-color="#e6e6e6" offset="0"/>
   <stop stop-color="#e6e6e6" stop-opacity="0" offset="1"/>
  </linearGradient>
  <linearGradient id="e" x1="129.03" x2="127.59" y1=".61931" y2="265.58" gradientTransform="matrix(1 0 0 1.0737 -3.6432 -8.9092)" gradientUnits="userSpaceOnUse">
   <stop stop-color="#ccc" offset="0"/>
   <stop stop-color="#ccc" stop-opacity="0" offset="1"/>
  </linearGradient>
  <linearGradient id="d" x1="28.571" x2="345.71" y1="-39.066" y2="432.36" gradientTransform="matrix(.72151 0 0 .59593 -105.55 -43.188)" gradientUnits="userSpaceOnUse" xlink:href="#a"/>
  <linearGradient id="c" x1="108.81" x2="271.49" y1="25.297" y2="272.06" gradientTransform="matrix(-.72151 0 0 -.59593 380.95 397.21)" gradientUnits="userSpaceOnUse" xlink:href="#a"/>
 </defs>
 <path d="m37.922 0.68974h217.63c15.092 0 27.243 12.15 27.243 27.243v296.26c0 15.092-12.15 27.243-27.243 27.243h-217.63c-15.092 0-27.243-12.15-27.243-27.243v-296.26c0-15.092 12.15-27.243 27.243-27.243z" fill="#1a1a1a"/>
 <path d="m36.73 0.68974h217.63c15.092 0 27.243 12.15 27.243 27.243v296.26c0 15.092-12.15 27.243-27.243 27.243h-217.63c-15.092 0-27.243-12.15-27.243-27.243v-296.26c0-15.092 12.15-27.243 27.243-27.243z" fill="url(#b)"/>
 <path d="m28.887 1.6371h217.63c15.092 0 27.243 12.15 27.243 27.243v296.26c0 15.092-12.15 27.243-27.243 27.243h-217.63c-15.092 0-27.243-12.15-27.243-27.243v-296.26c0-15.092 12.15-27.243 27.243-27.243z" stroke="#000" stroke-linecap="round" stroke-width="3.2786"/>
 <path d="m246.52 352.38h-217.63c-15.092 0-27.243-12.15-27.243-27.243v-296.26c0-15.092 12.15-27.243 27.243-27.243h217.63c15.092 0 27.243 12.15 27.243 27.243v296.26c0 15.092-12.15 27.243-27.243 27.243z" fill="url(#c)" opacity=".18056"/>
 <path d="m28.887 1.6371h217.63c15.092 0 27.243 12.15 27.243 27.243v296.26c0 15.092-12.15 27.243-27.243 27.243h-217.63c-15.092 0-27.243-12.15-27.243-27.243v-296.26c0-15.092 12.15-27.243 27.243-27.243z" fill="url(#d)"/>
 <path d="m22.96491,23.16482h233.21142c.4862,0 .87763.39143.87763.87763v273.30126c0,.48621-.39143.87763-.87763.87763h-233.21142c-.48621,0-.87763-.39142-.87763-.87763v-273.30126c0-.48621.39143-.87763.87763-.87763z" stroke="#ccc" stroke-width=".59593"/>
 <g transform="matrix(.11709 0 0 .11709 113.06 305.74)" fill="none" filter="url(#g)" stroke="#59f" stroke-linecap="round" stroke-width="25">
  <path transform="matrix(.55367 -.83273 .83273 .55367 -168.4 531.43)" d="m587.61 118.27c0 41.786-33.874 75.66-75.66 75.66s-75.66-33.874-75.66-75.66 33.874-75.66 75.66-75.66c9.5692 0 19.051 1.8152 27.944 5.3495"/>
  <path d="m214.3 77.962-0.0906 108.33"/>
 </g>
 <g transform="matrix(.11709 0 0 .11709 113.06 305.74)" fill="none" stroke="#59f" stroke-linecap="round" stroke-width="25">
  <path transform="matrix(.55367 -.83273 .83273 .55367 -168.4 531.43)" d="m587.61 118.27c0 41.786-33.874 75.66-75.66 75.66s-75.66-33.874-75.66-75.66 33.874-75.66 75.66-75.66c9.5692 0 19.051 1.8152 27.944 5.3495"/>
  <path d="m214.3 77.962-0.0906 108.33"/>
 </g>
 <g transform="matrix(.11709 0 0 .11709 113.06 305.74)" fill="none" filter="url(#f)" opacity=".83333" stroke="#fff" stroke-linecap="round" stroke-width="10">
  <path transform="matrix(.55367 -.83273 .83273 .55367 -168.4 531.43)" d="m587.61 118.27c0 41.786-33.874 75.66-75.66 75.66s-75.66-33.874-75.66-75.66 33.874-75.66 75.66-75.66c9.5692 0 19.051 1.8152 27.944 5.3495"/>
  <path d="m214.3 77.962-0.0906 108.33" stroke-width="10"/>
 </g>
 <path d="m154.55 325.47c0 8.7232-7.213 15.795-16.111 15.795s-16.111-7.0716-16.111-15.795 7.213-15.795 16.111-15.795 16.111 7.0715 16.111 15.795z" fill="none" opacity=".19444" stroke="#fff" stroke-linecap="round" stroke-width="2.6012"/>
 <path d="m279.2 36.904c1.0023 0 1.8092 0.80693 1.8092 1.8092v16.645c0 1.0023-0.80693 1.8092-1.8092 1.8092s-1.8092-0.80692-1.8092-1.8092v-16.645c0-1.0023 0.80693-1.8092 1.8092-1.8092z"/>
 <path d="m281.01 69.109c0 1.7986-0.81003 3.2567-1.8092 3.2567s-1.8092-1.4581-1.8092-3.2567 0.81003-3.2567 1.8092-3.2567 1.8092 1.4581 1.8092 3.2567z"/>
 <path d="m19.916 23.165h234.97l-95.349 295.32h-139.62z" fill="url(#e)" opacity=".19444"/>
</svg>
