<?xml version="1.0" encoding="UTF-8"?>
<svg viewBox="0 0 698.52 800.91" xmlns="http://www.w3.org/2000/svg">
 <g transform="matrix(5.7244 0 0 5.7244 -1262.7 -2786.7)" fill="#002ec4">
  <path d="m284.73 587.62v22.501l25.181 10.18v-22.502l-25.181-10.179z"/>
 </g>
 <g fill="#2da6ff">
  <g transform="matrix(5.7244 0 0 5.7244 -1262.7 -2786.7)">
   <path d="m340.72 610.5v-21.76l-30.939 9.195v22.501l30.939-9.936z"/>
  </g>
  <g transform="matrix(5.7244 0 0 5.7244 -1262.7 -2786.7)">
   <path d="m284.73 587.89l31.192-9.192 24.794 10.042-30.805 9.462-25.181-10.312z"/>
  </g>
 </g>
 <g transform="matrix(5.7244 0 0 5.7244 -1262.7 -2786.7)" fill="#002ec4">
  <path d="m305.09 589.23v4.554c2.41 2.143 10.713 2.01 12.723-0.268v-4.688l-12.723 0.402z"/>
 </g>
 <g transform="matrix(5.7244 0 0 5.7244 -1262.7 -2786.7)" fill="#2da6ff">
  <path d="m305.09 588.9c0-0.85004 2.848-1.54 6.361-1.54 3.514 0 6.362 0.69 6.362 1.54 0 0.85101-2.848 1.54-6.362 1.54-3.513 0-6.361-0.68896-6.361-1.54z"/>
 </g>
 <g transform="matrix(5.7244 0 0 5.7244 -1262.7 -2786.7)" fill="#002ec4">
  <path d="m320.96 584.61v4.554c2.411 2.144 10.714 2.01 12.723-0.26697v-4.688l-12.723 0.401z"/>
 </g>
 <g transform="matrix(5.7244 0 0 5.7244 -1262.7 -2786.7)" fill="#2da6ff">
  <path d="m320.96 584.28c0-0.85101 2.848-1.54 6.362-1.54 3.513 0 6.361 0.68903 6.361 1.54 0 0.84998-2.848 1.54-6.361 1.54-3.514 0-6.362-0.69-6.362-1.54z"/>
 </g>
 <g transform="matrix(5.7244 0 0 5.7244 -1262.7 -2786.7)" fill="#002ec4">
  <path d="m307.77 579.05v4.554c2.411 2.143 10.714 2.009 12.723-0.268v-4.688l-12.723 0.402z"/>
 </g>
 <g transform="matrix(5.7244 0 0 5.7244 -1262.7 -2786.7)" fill="#2da6ff">
  <path d="m307.77 578.72c0-0.84998 2.848-1.54 6.362-1.54 3.513 0 6.361 0.69 6.361 1.54 0 0.85101-2.848 1.54-6.361 1.54-3.514 0-6.362-0.68903-6.362-1.54z"/>
 </g>
 <g transform="matrix(5.7244 0 0 5.7244 -1262.7 -2786.7)" fill="#002ec4">
  <path d="m292.17 583.54v4.554c2.411 2.143 10.714 2.009 12.723-0.268v-4.688l-12.723 0.402z"/>
 </g>
 <g transform="matrix(5.7244 0 0 5.7244 -1262.7 -2786.7)" fill="#2da6ff">
  <path d="m292.17 583.21c0-0.85101 2.848-1.54 6.362-1.54 3.513 0 6.361 0.68903 6.361 1.54 0 0.85095-2.848 1.54-6.361 1.54-3.514 0-6.362-0.68903-6.362-1.54z"/>
 </g>
 <g transform="matrix(5.7244 0 0 5.7244 -582.68 -2301)" fill="#fcd327">
  <path d="m117.16 474.85v22.502l25.181 10.179v-22.502l-25.181-10.179z"/>
 </g>
 <g fill="#f5fa40">
  <g transform="matrix(5.7244 0 0 5.7244 -582.68 -2301)">
   <path d="m204.62 487.87v-20.929l-62.414 18.217v22.502l62.414-19.79z"/>
  </g>
  <g transform="matrix(5.7244 0 0 5.7244 -582.68 -2301)">
   <path d="m117.16 475.11l62.012-18.887 25.315 10.715-62.146 18.485-25.181-10.313z"/>
  </g>
 </g>
 <g transform="matrix(5.7244 0 0 5.7244 -582.68 -2301)" fill="#e9b018">
  <path d="m137.52 476.45v4.554c2.411 2.144 10.714 2.01 12.724-0.267v-4.689l-12.724 0.402z"/>
 </g>
 <g transform="matrix(5.7244 0 0 5.7244 -582.68 -2301)" fill="#f5fa40">
  <path d="m137.52 476.12c0-0.85001 2.848-1.54 6.362-1.54 3.513 0 6.362 0.69 6.362 1.54 0 0.85098-2.849 1.54-6.362 1.54-3.514 0-6.362-0.689-6.362-1.54z"/>
 </g>
 <g transform="matrix(5.7244 0 0 5.7244 -582.68 -2301)" fill="#e9b018">
  <path d="m153.39 471.83v4.555c2.411 2.143 10.714 2.009 12.723-0.268v-4.688l-12.723 0.401z"/>
 </g>
 <g transform="matrix(5.7244 0 0 5.7244 -582.68 -2301)" fill="#f5fa40">
  <path d="m153.39 471.5c0-0.85101 2.848-1.54 6.361-1.54 3.514 0 6.362 0.689 6.362 1.54 0 0.84998-2.848 1.54-6.362 1.54-3.513 0-6.361-0.69-6.361-1.54z"/>
 </g>
 <g transform="matrix(5.7244 0 0 5.7244 -582.68 -2301)" fill="#e9b018">
  <path d="m168.86 467.21v4.554c2.411 2.143 10.714 2.009 12.723-0.268v-4.688l-12.723 0.402z"/>
 </g>
 <g transform="matrix(5.7244 0 0 5.7244 -582.68 -2301)" fill="#f5fa40">
  <path d="m168.86 466.88c0-0.85101 2.848-1.54 6.362-1.54 3.513 0 6.361 0.689 6.361 1.54 0 0.85098-2.848 1.54-6.361 1.54-3.514 0-6.362-0.689-6.362-1.54z"/>
 </g>
 <g transform="matrix(5.7244 0 0 5.7244 -582.68 -2301)" fill="#e9b018">
  <path d="m183.79 462.72v4.554c2.411 2.143 10.714 2.009 12.723-0.268v-4.688l-12.723 0.402z"/>
 </g>
 <g transform="matrix(5.7244 0 0 5.7244 -582.68 -2301)" fill="#f5fa40">
  <path d="m183.79 462.39c0-0.85001 2.848-1.54 6.361-1.54 3.514 0 6.362 0.69 6.362 1.54 0 0.85098-2.848 1.54-6.362 1.54-3.513 0-6.361-0.689-6.361-1.54z"/>
 </g>
 <g transform="matrix(5.7244 0 0 5.7244 -582.68 -2301)" fill="#e9b018">
  <path d="m171.4 457.3v4.554c2.41 2.144 10.713 2.01 12.723-0.267v-4.688l-12.723 0.401z"/>
 </g>
 <g transform="matrix(5.7244 0 0 5.7244 -582.68 -2301)" fill="#f5fa40">
  <path d="m171.4 456.97c0-0.85101 2.848-1.54 6.361-1.54 3.514 0 6.362 0.689 6.362 1.54 0 0.85001-2.848 1.54-6.362 1.54-3.513 0-6.361-0.69-6.361-1.54z"/>
 </g>
 <g transform="matrix(5.7244 0 0 5.7244 -582.68 -2301)" fill="#e9b018">
  <path d="m155.8 461.79v4.554c2.41 2.144 10.714 2.01 12.723-0.267v-4.689l-12.723 0.402z"/>
 </g>
 <g transform="matrix(5.7244 0 0 5.7244 -582.68 -2301)" fill="#f5fa40">
  <path d="m155.8 461.45c0-0.85001 2.848-1.54 6.361-1.54 3.514 0 6.362 0.69 6.362 1.54 0 0.85098-2.848 1.54-6.362 1.54-3.513 0-6.361-0.68903-6.361-1.54z"/>
 </g>
 <g transform="matrix(5.7244 0 0 5.7244 -582.68 -2301)" fill="#e9b018">
  <path d="m140.2 466.28v4.554c2.411 2.143 10.714 2.01 12.723-0.268v-4.688l-12.723 0.402z"/>
 </g>
 <g transform="matrix(5.7244 0 0 5.7244 -582.68 -2301)" fill="#f5fa40">
  <path d="m140.2 465.94c0-0.85001 2.848-1.54 6.361-1.54 3.514 0 6.362 0.69 6.362 1.54 0 0.85098-2.848 1.54-6.362 1.54-3.513 0-6.361-0.689-6.361-1.54z"/>
 </g>
 <g transform="matrix(5.7244 0 0 5.7244 -582.68 -2301)" fill="#e9b018">
  <path d="m124.6 470.76v4.554c2.411 2.143 10.714 2.009 12.723-0.26798v-4.688l-12.723 0.402z"/>
 </g>
 <g transform="matrix(5.7244 0 0 5.7244 -582.68 -2301)" fill="#f5fa40">
  <path d="m124.6 470.43c0-0.84998 2.848-1.54 6.361-1.54 3.514 0 6.362 0.69 6.362 1.54 0 0.85101-2.848 1.54-6.362 1.54-3.513 0-6.361-0.689-6.361-1.54z"/>
 </g>
 <g transform="matrix(5.7244 0 0 5.7244 -582.68 -2301)" fill="#c00104">
  <path d="m136.3 447.35v22.501l25.181 10.18v-22.502l-25.181-10.179z" fill="#ff6100"/>
 </g>
 <g fill="#ff212c">
  <g transform="matrix(5.7244 0 0 5.7244 -582.68 -2301)">
   <path d="m223.76 460.37v-20.929l-62.414 18.217v22.501l62.414-19.789z" fill="#f90"/>
  </g>
  <g transform="matrix(5.7244 0 0 5.7244 -582.68 -2301)">
   <path d="m136.3 447.61l62.013-18.886 25.314 10.715-62.146 18.484-25.181-10.313z" fill="#f90"/>
  </g>
 </g>
 <g transform="matrix(5.7244 0 0 5.7244 -582.68 -2301)" fill="#c00104">
  <path d="m156.66 448.95v4.554c2.41 2.143 10.713 2.01 12.723-0.268v-4.688l-12.723 0.402z" fill="#ff4800"/>
 </g>
 <g transform="matrix(5.7244 0 0 5.7244 -582.68 -2301)" fill="#ff212c">
  <path d="m156.66 448.62c0-0.85001 2.848-1.54 6.361-1.54 3.514 0 6.362 0.69 6.362 1.54 0 0.85098-2.848 1.54-6.362 1.54-3.513 0-6.361-0.689-6.361-1.54z" fill="#f90"/>
 </g>
 <g transform="matrix(5.7244 0 0 5.7244 -582.68 -2301)" fill="#c00104">
  <path d="m172.53 444.33v4.554c2.411 2.144 10.714 2.01 12.723-0.267v-4.688l-12.723 0.401z" fill="#ff4800"/>
 </g>
 <g transform="matrix(5.7244 0 0 5.7244 -582.68 -2301)" fill="#ff212c">
  <path d="m172.53 444c0-0.85098 2.848-1.54 6.362-1.54 3.513 0 6.361 0.689 6.361 1.54 0 0.85001-2.848 1.54-6.361 1.54-3.514 0-6.362-0.69-6.362-1.54z" fill="#f90"/>
 </g>
 <g transform="matrix(5.7244 0 0 5.7244 -582.68 -2301)" fill="#c00104">
  <path d="m187.99 439.71v4.555c2.411 2.143 10.714 2.009 12.723-0.26798v-4.688l-12.723 0.401z" fill="#ff4800"/>
 </g>
 <g transform="matrix(5.7244 0 0 5.7244 -582.68 -2301)" fill="#ff212c">
  <path d="m187.99 439.38c0-0.85098 2.848-1.54 6.362-1.54 3.513 0 6.361 0.689 6.361 1.54 0 0.85001-2.848 1.54-6.361 1.54-3.514 0-6.362-0.69-6.362-1.54z" fill="#f90"/>
 </g>
 <g transform="matrix(5.7244 0 0 5.7244 -582.68 -2301)" fill="#c00104">
  <path d="m202.93 435.22v4.554c2.411 2.143 10.714 2.009 12.723-0.26798v-4.688l-12.723 0.402z" fill="#ff4800"/>
 </g>
 <g transform="matrix(5.7244 0 0 5.7244 -582.68 -2301)" fill="#ff212c">
  <path d="m202.93 434.89c0-0.84998 2.848-1.54 6.362-1.54 3.513 0 6.361 0.69 6.361 1.54 0 0.85101-2.848 1.54-6.361 1.54-3.514 0-6.362-0.689-6.362-1.54z" fill="#f90"/>
 </g>
 <g transform="matrix(5.7244 0 0 5.7244 -582.68 -2301)" fill="#c00104">
  <path d="m190.54 429.8v4.554c2.411 2.144 10.714 2.01 12.723-0.267v-4.689l-12.723 0.402z" fill="#ff4800"/>
 </g>
 <g transform="matrix(5.7244 0 0 5.7244 -582.68 -2301)" fill="#ff212c">
  <path d="m190.54 429.47c0-0.85001 2.848-1.54 6.361-1.54 3.514 0 6.362 0.69 6.362 1.54 0 0.85098-2.848 1.54-6.362 1.54-3.513 0-6.361-0.68903-6.361-1.54z" fill="#f90"/>
 </g>
 <g transform="matrix(5.7244 0 0 5.7244 -582.68 -2301)" fill="#c00104">
  <path d="m174.94 434.29v4.554c2.411 2.143 10.714 2.01 12.723-0.268v-4.688l-12.723 0.402z"/>
 </g>
 <g transform="matrix(5.7244 0 0 5.7244 -582.68 -2301)" fill="#ff212c">
  <path d="m174.94 433.95c0-0.85001 2.848-1.54 6.361-1.54 3.514 0 6.362 0.69 6.362 1.54 0 0.85098-2.848 1.54-6.362 1.54-3.513 0-6.361-0.689-6.361-1.54z"/>
 </g>
 <g transform="matrix(5.7244 0 0 5.7244 -582.68 -2301)" fill="#c00104">
  <path d="m159.34 438.78v4.554c2.411 2.143 10.714 2.009 12.723-0.26798v-4.688l-12.723 0.402z"/>
 </g>
 <g transform="matrix(5.7244 0 0 5.7244 -582.68 -2301)" fill="#ff212c">
  <path d="m159.34 438.44c0-0.84998 2.848-1.54 6.362-1.54 3.513 0 6.361 0.69 6.361 1.54 0 0.85101-2.848 1.54-6.361 1.54-3.514 0-6.362-0.689-6.362-1.54z"/>
 </g>
 <g transform="matrix(5.7244 0 0 5.7244 -582.68 -2301)" fill="#c00104">
  <path d="m143.73 443.26v4.554c2.411 2.143 10.714 2.009 12.723-0.268v-4.688l-12.723 0.402z"/>
 </g>
 <g transform="matrix(5.7244 0 0 5.7244 -582.68 -2301)" fill="#ff212c">
  <path d="m143.73 442.93c0-0.85098 2.848-1.54 6.362-1.54 3.513 0 6.361 0.68903 6.361 1.54 0 0.85101-2.848 1.54-6.361 1.54-3.514 0-6.362-0.689-6.362-1.54z"/>
 </g>
 <g transform="matrix(5.7244 0 0 5.7244 -582.68 -2301)" fill="#002ec4">
  <path d="m101.73 425.93v22.501l25.181 10.179v-22.501l-25.181-10.179z" fill="#bf005f"/>
 </g>
 <g fill="#2da6ff">
  <g transform="matrix(5.7244 0 0 5.7244 -582.68 -2301)">
   <path d="m189.19 438.95v-20.929l-62.414 18.217v22.501l62.414-19.789z" fill="#e6029a"/>
  </g>
  <g transform="matrix(5.7244 0 0 5.7244 -582.68 -2301)">
   <path d="m101.73 426.2l62.012-18.886 25.315 10.715-62.146 18.484-25.181-10.313z" fill="#e6029a"/>
  </g>
 </g>
 <g transform="matrix(5.7244 0 0 5.7244 -582.68 -2301)" fill="#002ec4">
  <path d="m122.09 427.53v4.554c2.411 2.143 10.714 2.009 12.723-0.268v-4.688l-12.723 0.402z" fill="#bf005f"/>
 </g>
 <g transform="matrix(5.7244 0 0 5.7244 -582.68 -2301)" fill="#2da6ff">
  <path d="m122.09 427.2c0-0.85001 2.848-1.54 6.362-1.54 3.513 0 6.361 0.69 6.361 1.54 0 0.85098-2.848 1.54-6.361 1.54-3.514 0-6.362-0.689-6.362-1.54z" fill="#e6029a"/>
 </g>
 <g transform="matrix(5.7244 0 0 5.7244 -582.68 -2301)" fill="#002ec4">
  <path d="m137.96 422.91v4.554c2.41 2.144 10.713 2.01 12.723-0.267v-4.688l-12.723 0.401z" fill="#bf005f"/>
 </g>
 <g transform="matrix(5.7244 0 0 5.7244 -582.68 -2301)" fill="#2da6ff">
  <path d="m137.96 422.58c0-0.85001 2.848-1.54 6.361-1.54 3.514 0 6.362 0.69 6.362 1.54 0 0.85098-2.848 1.541-6.362 1.541-3.513 0-6.361-0.69-6.361-1.541z" fill="#e6029a"/>
 </g>
 <g transform="matrix(5.7244 0 0 5.7244 -582.68 -2301)" fill="#002ec4">
  <path d="m153.43 418.29v4.555c2.411 2.143 10.714 2.009 12.723-0.26798v-4.688l-12.723 0.401z" fill="#bf005f"/>
 </g>
 <g transform="matrix(5.7244 0 0 5.7244 -582.68 -2301)" fill="#2da6ff">
  <path d="m153.43 417.96c0-0.85098 2.848-1.54 6.361-1.54 3.514 0 6.362 0.689 6.362 1.54 0 0.85001-2.848 1.54-6.362 1.54-3.513 0-6.361-0.69-6.361-1.54z" fill="#e6029a"/>
 </g>
 <g transform="matrix(5.7244 0 0 5.7244 -582.68 -2301)" fill="#002ec4">
  <path d="m168.37 413.81v4.554c2.41 2.143 10.713 2.009 12.723-0.26798v-4.688l-12.723 0.402z" fill="#bf005f"/>
 </g>
 <g transform="matrix(5.7244 0 0 5.7244 -582.68 -2301)" fill="#2da6ff">
  <path d="m168.37 413.47c0-0.85098 2.848-1.54 6.361-1.54 3.514 0 6.362 0.689 6.362 1.54 0 0.85101-2.848 1.54-6.362 1.54-3.513 0-6.361-0.689-6.361-1.54z" fill="#e6029a"/>
 </g>
 <g transform="matrix(5.7244 0 0 5.7244 -582.68 -2301)" fill="#002ec4">
  <path d="m155.98 408.38v4.554c2.411 2.143 10.714 2.01 12.724-0.268v-4.688l-12.724 0.402z" fill="#bf005f"/>
 </g>
 <g transform="matrix(5.7244 0 0 5.7244 -582.68 -2301)" fill="#2da6ff">
  <path d="m155.98 408.05c0-0.85001 2.849-1.54 6.362-1.54 3.514 0 6.362 0.69 6.362 1.54 0 0.85098-2.848 1.54-6.362 1.54-3.513 0-6.362-0.68903-6.362-1.54z" fill="#e6029a"/>
 </g>
 <g transform="matrix(5.7244 0 0 5.7244 -582.68 -2301)" fill="#002ec4">
  <path d="m140.38 412.87v4.554c2.41 2.143 10.713 2.009 12.723-0.268v-4.688l-12.723 0.402z" fill="#bf005f"/>
 </g>
 <g transform="matrix(5.7244 0 0 5.7244 -582.68 -2301)" fill="#2da6ff">
  <path d="m140.38 412.54c0-0.85001 2.848-1.54 6.361-1.54 3.514 0 6.362 0.69 6.362 1.54 0 0.85098-2.848 1.54-6.362 1.54-3.513 0-6.361-0.689-6.361-1.54z" fill="#e6029a"/>
 </g>
 <g transform="matrix(5.7244 0 0 5.7244 -582.68 -2301)" fill="#002ec4">
  <path d="m124.77 417.36v4.554c2.41 2.143 10.713 2.009 12.723-0.26798v-4.688l-12.723 0.402z" fill="#bf005f"/>
 </g>
 <g transform="matrix(5.7244 0 0 5.7244 -582.68 -2301)" fill="#2da6ff">
  <path d="m124.77 417.02c0-0.85098 2.848-1.54 6.361-1.54 3.514 0 6.362 0.689 6.362 1.54 0 0.85101-2.848 1.54-6.362 1.54-3.513 0-6.361-0.689-6.361-1.54z" fill="#e6029a"/>
 </g>
 <g transform="matrix(5.7244 0 0 5.7244 -582.68 -2301)" fill="#002ec4">
  <path d="m109.17 421.85v4.555c2.411 2.143 10.713 2.009 12.723-0.268v-4.688l-12.723 0.401z" fill="#bf005f"/>
 </g>
 <g transform="matrix(5.7244 0 0 5.7244 -582.68 -2301)" fill="#2da6ff">
  <path d="m109.17 421.51c0-0.85098 2.848-1.54 6.361-1.54 3.514 0 6.362 0.68903 6.362 1.54 0 0.85001-2.848 1.54-6.362 1.54-3.513 0-6.361-0.69-6.361-1.54z" fill="#e6029a"/>
 </g>
</svg>
