<?xml version="1.0" encoding="UTF-8"?>
<svg width="500" height="500" version="1.1" viewBox="0 0 500.00001 500.00001" xmlns="http://www.w3.org/2000/svg">
 <g transform="translate(0 -552.36)">
  <path d="m250 571.78 199.69 115.29-1e-5 230.58-199.69 115.29-199.69-115.29 7e-6 -230.58z" fill="none" stroke="#555" stroke-linecap="round" stroke-width="18.446"/>
  <path d="m307.32 671.77a38.452 38.452 0 0 0 -38.452 38.453 38.452 38.452 0 0 0 1.8878 11.747l-88.49 51.09a38.452 38.452 0 0 0 -28.458 -12.659 38.452 38.452 0 0 0 -38.452 38.452 38.452 38.452 0 0 0 38.452 38.452 38.452 38.452 0 0 0 22.041 -7.0002l90.828 52.439a38.452 38.452 0 0 0 -1.8625 11.761 38.452 38.452 0 0 0 38.452 38.452 38.452 38.452 0 0 0 38.452 -38.452 38.452 38.452 0 0 0 -38.452 -38.453 38.452 38.452 0 0 0 -28.458 12.66l-87.73-50.651a38.452 38.452 0 0 0 5.182 -19.208 38.452 38.452 0 0 0 -1.8862 -11.747l88.489-51.09a38.452 38.452 0 0 0 28.458 12.659 38.452 38.452 0 0 0 38.452 -38.452 38.452 38.452 0 0 0 -38.452 -38.453z" fill="#555"/>
 </g>
</svg>
