<?xml version="1.0" encoding="UTF-8"?>
<svg version="1.1" viewBox="0 0 1920 2715.4" xmlns="http://www.w3.org/2000/svg">
 <g transform="translate(587.95 831.53)">
  <g transform="matrix(2.5803 0 0 2.5803 -587.95 -831.53)">
   <rect x="2.4886" y="2.4885" width="739.12" height="1047.4" fill="#fff"/>
   <path d="m0 0v1052.4h744.09v-1052.4h-744.09zm4.9766 4.9766h734.14v1042.4h-734.14v-1042.4z" color="#000000" color-rendering="auto" image-rendering="auto" shape-rendering="auto" solid-color="#000000" style="block-progression:tb;isolation:auto;mix-blend-mode:normal;text-decoration-color:#000000;text-decoration-line:none;text-decoration-style:solid;text-indent:0;text-transform:none;white-space:normal"/>
   <g fill="#666">
    <g transform="translate(117.73 71.572)">
     <path d="m92.934 117.61h41.562v41.562h-41.562v-41.562z"/>
     <path d="m148.93 117.61h41.562v41.562h-41.562v-41.562z"/>
     <path d="m204.93 117.61h41.562v41.562h-41.562v-41.562z"/>
     <path d="m260.93 117.61h41.562v41.562h-41.562v-41.562z"/>
     <path d="m316.93 117.61h41.562v41.562h-41.562v-41.562z"/>
    </g>
    <g transform="translate(-48.576 -63.11)">
     <path d="m88.809 106.45h17.812v17.812h-17.812v-17.812z"/>
     <path d="m112.81 106.45h17.812v17.812h-17.812v-17.812z"/>
     <path d="m136.81 106.45h17.812v17.812h-17.812v-17.812z"/>
     <path d="m160.81 106.45h17.812v17.812h-17.812v-17.812z"/>
     <path d="m184.81 106.45h17.812v17.812h-17.812v-17.812z"/>
     <path d="m208.81 106.45h17.812v17.812h-17.812v-17.812z"/>
     <path d="m88.809 136.45h17.812v17.812h-17.812v-17.812z"/>
     <path d="m112.81 136.45h17.812v17.812h-17.812v-17.812z"/>
     <path d="m136.81 136.45h17.812v17.812h-17.812v-17.812z"/>
     <path d="m160.81 136.45h17.812v17.812h-17.812v-17.812z"/>
     <path d="m184.81 136.45h17.812v17.812h-17.812v-17.812z"/>
     <path d="m208.81 136.45h17.812v17.812h-17.812v-17.812z"/>
    </g>
    <g transform="translate(-4.8616 192.76)">
     <path d="m88.809 106.45h17.812v17.812h-17.812v-17.812z"/>
     <path d="m112.81 106.45h17.812v17.812h-17.812v-17.812z"/>
     <path d="m136.81 106.45h17.812v17.812h-17.812v-17.812z"/>
     <path d="m160.81 106.45h17.812v17.812h-17.812v-17.812z"/>
     <path d="m184.81 106.45h17.812v17.812h-17.812v-17.812z"/>
     <path d="m208.81 106.45h17.812v17.812h-17.812v-17.812z"/>
     <path d="m232.81 106.45h17.812v17.812h-17.812v-17.812z"/>
     <path d="m256.81 106.45h17.812v17.812h-17.812v-17.812z"/>
     <path d="m280.81 106.45h17.812v17.812h-17.812v-17.812z"/>
     <path d="m304.81 106.45h17.812v17.812h-17.812v-17.812z"/>
     <path d="m328.81 106.45h17.812v17.812h-17.812v-17.812z"/>
     <path d="m352.81 106.45h17.812v17.812h-17.812v-17.812z"/>
     <path d="m376.81 106.45h17.812v17.812h-17.812v-17.812z"/>
     <path d="m400.81 106.45h17.812v17.812h-17.812v-17.812z"/>
     <path d="m424.81 106.45h17.812v17.812h-17.812v-17.812z"/>
     <path d="m448.81 106.45h17.812v17.812h-17.812v-17.812z"/>
     <path d="m472.81 106.45h17.812v17.812h-17.812v-17.812z"/>
     <path d="m496.81 106.45h17.812v17.812h-17.812v-17.812z"/>
     <path d="m520.81 106.45h17.812v17.812h-17.812v-17.812z"/>
     <path d="m544.81 106.45h17.812v17.812h-17.812v-17.812z"/>
     <path d="m568.81 106.45h17.812v17.812h-17.812v-17.812z"/>
     <path d="m592.81 106.45h17.812v17.812h-17.812v-17.812z"/>
     <path d="m616.81 106.45h17.812v17.812h-17.812v-17.812z"/>
     <path d="m88.809 136.45h17.812v17.812h-17.812v-17.812z"/>
     <path d="m112.81 136.45h17.812v17.812h-17.812v-17.812z"/>
     <path d="m136.81 136.45h17.812v17.812h-17.812v-17.812z"/>
     <path d="m160.81 136.45h17.812v17.812h-17.812v-17.812z"/>
     <path d="m184.81 136.45h17.812v17.812h-17.812v-17.812z"/>
     <path d="m208.81 136.45h17.812v17.812h-17.812v-17.812z"/>
     <path d="m232.81 136.45h17.812v17.812h-17.812v-17.812z"/>
     <path d="m256.81 136.45h17.812v17.812h-17.812v-17.812z"/>
     <path d="m280.81 136.45h17.812v17.812h-17.812v-17.812z"/>
     <path d="m304.81 136.45h17.812v17.812h-17.812v-17.812z"/>
     <path d="m328.81 136.45h17.812v17.812h-17.812v-17.812z"/>
     <path d="m352.81 136.45h17.812v17.812h-17.812v-17.812z"/>
     <path d="m376.81 136.45h17.812v17.812h-17.812v-17.812z"/>
     <path d="m400.81 136.45h17.812v17.812h-17.812v-17.812z"/>
     <path d="m424.81 136.45h17.812v17.812h-17.812v-17.812z"/>
     <path d="m448.81 136.45h17.812v17.812h-17.812v-17.812z"/>
     <path d="m472.81 136.45h17.812v17.812h-17.812v-17.812z"/>
     <path d="m496.81 136.45h17.812v17.812h-17.812v-17.812z"/>
     <path d="m520.81 136.45h17.812v17.812h-17.812v-17.812z"/>
     <path d="m88.809 196.45h17.812v17.812h-17.812v-17.812z"/>
     <path d="m112.81 196.45h17.812v17.812h-17.812v-17.812z"/>
     <path d="m136.81 196.45h17.812v17.812h-17.812v-17.812z"/>
     <path d="m160.81 196.45h17.812v17.812h-17.812v-17.812z"/>
     <path d="m184.81 196.45h17.812v17.812h-17.812v-17.812z"/>
     <path d="m208.81 196.45h17.812v17.812h-17.812v-17.812z"/>
     <path d="m232.81 196.45h17.812v17.812h-17.812v-17.812z"/>
     <path d="m256.81 196.45h17.812v17.812h-17.812v-17.812z"/>
     <path d="m280.81 196.45h17.812v17.812h-17.812v-17.812z"/>
     <path d="m304.81 196.45h17.812v17.812h-17.812v-17.812z"/>
     <path d="m328.81 196.45h17.812v17.812h-17.812v-17.812z"/>
     <path d="m352.81 196.45h17.812v17.812h-17.812v-17.812z"/>
     <path d="m376.81 196.45h17.812v17.812h-17.812v-17.812z"/>
     <path d="m400.81 196.45h17.812v17.812h-17.812v-17.812z"/>
     <path d="m424.81 196.45h17.812v17.812h-17.812v-17.812z"/>
     <path d="m448.81 196.45h17.812v17.812h-17.812v-17.812z"/>
     <path d="m472.81 196.45h17.812v17.812h-17.812v-17.812z"/>
     <path d="m496.81 196.45h17.812v17.812h-17.812v-17.812z"/>
     <path d="m520.81 196.45h17.812v17.812h-17.812v-17.812z"/>
     <path d="m544.81 196.45h17.812v17.812h-17.812v-17.812z"/>
     <path d="m568.81 196.45h17.812v17.812h-17.812v-17.812z"/>
     <path d="m592.81 196.45h17.812v17.812h-17.812v-17.812z"/>
     <path d="m616.81 196.45h17.812v17.812h-17.812v-17.812z"/>
     <path d="m88.809 226.45h17.812v17.812h-17.812v-17.812z"/>
     <path d="m112.81 226.45h17.812v17.812h-17.812v-17.812z"/>
     <path d="m136.81 226.45h17.812v17.812h-17.812v-17.812z"/>
     <path d="m160.81 226.45h17.812v17.812h-17.812v-17.812z"/>
     <path d="m184.81 226.45h17.812v17.812h-17.812v-17.812z"/>
     <path d="m208.81 226.45h17.812v17.812h-17.812v-17.812z"/>
     <path d="m232.81 226.45h17.812v17.812h-17.812v-17.812z"/>
     <path d="m256.81 226.45h17.812v17.812h-17.812v-17.812z"/>
     <path d="m280.81 226.45h17.812v17.812h-17.812v-17.812z"/>
     <path d="m304.81 226.45h17.812v17.812h-17.812v-17.812z"/>
     <path d="m328.81 226.45h17.812v17.812h-17.812v-17.812z"/>
     <path d="m352.81 226.45h17.812v17.812h-17.812v-17.812z"/>
     <path d="m376.81 226.45h17.812v17.812h-17.812v-17.812z"/>
     <path d="m400.81 226.45h17.812v17.812h-17.812v-17.812z"/>
     <path d="m424.81 226.45h17.812v17.812h-17.812v-17.812z"/>
     <path d="m448.81 226.45h17.812v17.812h-17.812v-17.812z"/>
     <path d="m472.81 226.45h17.812v17.812h-17.812v-17.812z"/>
     <path d="m496.81 226.45h17.812v17.812h-17.812v-17.812z"/>
     <path d="m520.81 226.45h17.812v17.812h-17.812v-17.812z"/>
     <path d="m544.81 226.45h17.812v17.812h-17.812v-17.812z"/>
     <path d="m568.81 226.45h17.812v17.812h-17.812v-17.812z"/>
     <path d="m592.81 226.45h17.812v17.812h-17.812v-17.812z"/>
     <path d="m616.81 226.45h17.812v17.812h-17.812v-17.812z"/>
     <path d="m88.809 256.45h17.812v17.812h-17.812v-17.812z"/>
     <path d="m112.81 256.45h17.812v17.812h-17.812v-17.812z"/>
     <path d="m136.81 256.45h17.812v17.812h-17.812v-17.812z"/>
     <path d="m160.81 256.45h17.812v17.812h-17.812v-17.812z"/>
     <path d="m184.81 256.45h17.812v17.812h-17.812v-17.812z"/>
     <path d="m208.81 256.45h17.812v17.812h-17.812v-17.812z"/>
     <path d="m232.81 256.45h17.812v17.812h-17.812v-17.812z"/>
     <path d="m256.81 256.45h17.812v17.812h-17.812v-17.812z"/>
     <path d="m88.809 316.45h17.812v17.812h-17.812v-17.812z"/>
     <path d="m112.81 316.45h17.812v17.812h-17.812v-17.812z"/>
     <path d="m136.81 316.45h17.812v17.812h-17.812v-17.812z"/>
     <path d="m160.81 316.45h17.812v17.812h-17.812v-17.812z"/>
     <path d="m184.81 316.45h17.812v17.812h-17.812v-17.812z"/>
     <path d="m208.81 316.45h17.812v17.812h-17.812v-17.812z"/>
     <path d="m232.81 316.45h17.812v17.812h-17.812v-17.812z"/>
     <path d="m256.81 316.45h17.812v17.812h-17.812v-17.812z"/>
     <path d="m280.81 316.45h17.812v17.812h-17.812v-17.812z"/>
     <path d="m304.81 316.45h17.812v17.812h-17.812v-17.812z"/>
     <path d="m328.81 316.45h17.812v17.812h-17.812v-17.812z"/>
     <path d="m352.81 316.45h17.812v17.812h-17.812v-17.812z"/>
     <path d="m376.81 316.45h17.812v17.812h-17.812v-17.812z"/>
     <path d="m400.81 316.45h17.812v17.812h-17.812v-17.812z"/>
     <path d="m424.81 316.45h17.812v17.812h-17.812v-17.812z"/>
     <path d="m448.81 316.45h17.812v17.812h-17.812v-17.812z"/>
     <path d="m472.81 316.45h17.812v17.812h-17.812v-17.812z"/>
     <path d="m496.81 316.45h17.812v17.812h-17.812v-17.812z"/>
     <path d="m520.81 316.45h17.812v17.812h-17.812v-17.812z"/>
     <path d="m544.81 316.45h17.812v17.812h-17.812v-17.812z"/>
     <path d="m568.81 316.45h17.812v17.812h-17.812v-17.812z"/>
     <path d="m592.81 316.45h17.812v17.812h-17.812v-17.812z"/>
     <path d="m616.81 316.45h17.812v17.812h-17.812v-17.812z"/>
     <path d="m88.809 346.45h17.812v17.812h-17.812v-17.812z"/>
     <path d="m112.81 346.45h17.812v17.812h-17.812v-17.812z"/>
     <path d="m136.81 346.45h17.812v17.812h-17.812v-17.812z"/>
     <path d="m160.81 346.45h17.812v17.812h-17.812v-17.812z"/>
     <path d="m184.81 346.45h17.812v17.812h-17.812v-17.812z"/>
     <path d="m208.81 346.45h17.812v17.812h-17.812v-17.812z"/>
     <path d="m232.81 346.45h17.812v17.812h-17.812v-17.812z"/>
     <path d="m256.81 346.45h17.812v17.812h-17.812v-17.812z"/>
     <path d="m280.81 346.45h17.812v17.812h-17.812v-17.812z"/>
     <path d="m304.81 346.45h17.812v17.812h-17.812v-17.812z"/>
     <path d="m328.81 346.45h17.812v17.812h-17.812v-17.812z"/>
     <path d="m352.81 346.45h17.812v17.812h-17.812v-17.812z"/>
     <path d="m376.81 346.45h17.812v17.812h-17.812v-17.812z"/>
     <path d="m400.81 346.45h17.812v17.812h-17.812v-17.812z"/>
     <path d="m424.81 346.45h17.812v17.812h-17.812v-17.812z"/>
     <path d="m448.81 346.45h17.812v17.812h-17.812v-17.812z"/>
     <path d="m472.81 346.45h17.812v17.812h-17.812v-17.812z"/>
     <path d="m496.81 346.45h17.812v17.812h-17.812v-17.812z"/>
     <path d="m520.81 346.45h17.812v17.812h-17.812v-17.812z"/>
     <path d="m88.809 406.45h17.812v17.812h-17.812v-17.812z"/>
     <path d="m112.81 406.45h17.812v17.812h-17.812v-17.812z"/>
     <path d="m136.81 406.45h17.812v17.812h-17.812v-17.812z"/>
     <path d="m160.81 406.45h17.812v17.812h-17.812v-17.812z"/>
     <path d="m184.81 406.45h17.812v17.812h-17.812v-17.812z"/>
     <path d="m208.81 406.45h17.812v17.812h-17.812v-17.812z"/>
     <path d="m232.81 406.45h17.812v17.812h-17.812v-17.812z"/>
     <path d="m256.81 406.45h17.812v17.812h-17.812v-17.812z"/>
     <path d="m280.81 406.45h17.812v17.812h-17.812v-17.812z"/>
     <path d="m304.81 406.45h17.812v17.812h-17.812v-17.812z"/>
     <path d="m328.81 406.45h17.812v17.812h-17.812v-17.812z"/>
     <path d="m352.81 406.45h17.812v17.812h-17.812v-17.812z"/>
     <path d="m376.81 406.45h17.812v17.812h-17.812v-17.812z"/>
     <path d="m400.81 406.45h17.812v17.812h-17.812v-17.812z"/>
     <path d="m424.81 406.45h17.812v17.812h-17.812v-17.812z"/>
     <path d="m448.81 406.45h17.812v17.812h-17.812v-17.812z"/>
     <path d="m472.81 406.45h17.812v17.812h-17.812v-17.812z"/>
     <path d="m496.81 406.45h17.812v17.812h-17.812v-17.812z"/>
     <path d="m520.81 406.45h17.812v17.812h-17.812v-17.812z"/>
     <path d="m544.81 406.45h17.812v17.812h-17.812v-17.812z"/>
     <path d="m568.81 406.45h17.812v17.812h-17.812v-17.812z"/>
     <path d="m592.81 406.45h17.812v17.812h-17.812v-17.812z"/>
     <path d="m616.81 406.45h17.812v17.812h-17.812v-17.812z"/>
     <path d="m88.809 436.45h17.812v17.812h-17.812v-17.812z"/>
     <path d="m112.81 436.45h17.812v17.812h-17.812v-17.812z"/>
     <path d="m136.81 436.45h17.812v17.812h-17.812v-17.812z"/>
     <path d="m160.81 436.45h17.812v17.812h-17.812v-17.812z"/>
     <path d="m184.81 436.45h17.812v17.812h-17.812v-17.812z"/>
     <path d="m208.81 436.45h17.812v17.812h-17.812v-17.812z"/>
     <path d="m232.81 436.45h17.812v17.812h-17.812v-17.812z"/>
     <path d="m256.81 436.45h17.812v17.812h-17.812v-17.812z"/>
     <path d="m280.81 436.45h17.812v17.812h-17.812v-17.812z"/>
     <path d="m304.81 436.45h17.812v17.812h-17.812v-17.812z"/>
     <path d="m328.81 436.45h17.812v17.812h-17.812v-17.812z"/>
     <path d="m352.81 436.45h17.812v17.812h-17.812v-17.812z"/>
     <path d="m376.81 436.45h17.812v17.812h-17.812v-17.812z"/>
     <path d="m400.81 436.45h17.812v17.812h-17.812v-17.812z"/>
     <path d="m424.81 436.45h17.812v17.812h-17.812v-17.812z"/>
     <path d="m448.81 436.45h17.812v17.812h-17.812v-17.812z"/>
     <path d="m472.81 436.45h17.812v17.812h-17.812v-17.812z"/>
     <path d="m496.81 436.45h17.812v17.812h-17.812v-17.812z"/>
     <path d="m520.81 436.45h17.812v17.812h-17.812v-17.812z"/>
     <path d="m544.81 436.45h17.812v17.812h-17.812v-17.812z"/>
     <path d="m568.81 436.45h17.812v17.812h-17.812v-17.812z"/>
     <path d="m592.81 436.45h17.812v17.812h-17.812v-17.812z"/>
     <path d="m616.81 436.45h17.812v17.812h-17.812v-17.812z"/>
     <path d="m88.809 466.45h17.812v17.812h-17.812v-17.812z"/>
     <path d="m112.81 466.45h17.812v17.812h-17.812v-17.812z"/>
     <path d="m136.81 466.45h17.812v17.812h-17.812v-17.812z"/>
     <path d="m160.81 466.45h17.812v17.812h-17.812v-17.812z"/>
     <path d="m184.81 466.45h17.812v17.812h-17.812v-17.812z"/>
     <path d="m208.81 466.45h17.812v17.812h-17.812v-17.812z"/>
     <path d="m232.81 466.45h17.812v17.812h-17.812v-17.812z"/>
     <path d="m256.81 466.45h17.812v17.812h-17.812v-17.812z"/>
     <path d="m280.81 466.45h17.812v17.812h-17.812v-17.812z"/>
     <path d="m304.81 466.45h17.812v17.812h-17.812v-17.812z"/>
     <path d="m328.81 466.45h17.812v17.812h-17.812v-17.812z"/>
     <path d="m352.81 466.45h17.812v17.812h-17.812v-17.812z"/>
     <path d="m376.81 466.45h17.812v17.812h-17.812v-17.812z"/>
     <path d="m400.81 466.45h17.812v17.812h-17.812v-17.812z"/>
     <path d="m424.81 466.45h17.812v17.812h-17.812v-17.812z"/>
     <path d="m448.81 466.45h17.812v17.812h-17.812v-17.812z"/>
     <path d="m472.81 466.45h17.812v17.812h-17.812v-17.812z"/>
     <path d="m496.81 466.45h17.812v17.812h-17.812v-17.812z"/>
     <path d="m520.81 466.45h17.812v17.812h-17.812v-17.812z"/>
     <path d="m544.81 466.45h17.812v17.812h-17.812v-17.812z"/>
     <path d="m568.81 466.45h17.812v17.812h-17.812v-17.812z"/>
     <path d="m592.81 466.45h17.812v17.812h-17.812v-17.812z"/>
     <path d="m616.81 466.45h17.812v17.812h-17.812v-17.812z"/>
     <path d="m88.809 496.45h17.812v17.812h-17.812v-17.812z"/>
     <path d="m112.81 496.45h17.812v17.812h-17.812v-17.812z"/>
     <path d="m136.81 496.45h17.812v17.812h-17.812v-17.812z"/>
     <path d="m160.81 496.45h17.812v17.812h-17.812v-17.812z"/>
     <path d="m184.81 496.45h17.812v17.812h-17.812v-17.812z"/>
     <path d="m208.81 496.45h17.812v17.812h-17.812v-17.812z"/>
     <path d="m232.81 496.45h17.812v17.812h-17.812v-17.812z"/>
     <path d="m256.81 496.45h17.812v17.812h-17.812v-17.812z"/>
     <path d="m280.81 496.45h17.812v17.812h-17.812v-17.812z"/>
     <path d="m88.809 556.45h17.812v17.812h-17.812v-17.812z"/>
     <path d="m112.81 556.45h17.812v17.812h-17.812v-17.812z"/>
     <path d="m136.81 556.45h17.812v17.812h-17.812v-17.812z"/>
     <path d="m160.81 556.45h17.812v17.812h-17.812v-17.812z"/>
     <path d="m184.81 556.45h17.812v17.812h-17.812v-17.812z"/>
     <path d="m208.81 556.45h17.812v17.812h-17.812v-17.812z"/>
     <path d="m232.81 556.45h17.812v17.812h-17.812v-17.812z"/>
     <path d="m256.81 556.45h17.812v17.812h-17.812v-17.812z"/>
     <path d="m280.81 556.45h17.812v17.812h-17.812v-17.812z"/>
     <path d="m304.81 556.45h17.812v17.812h-17.812v-17.812z"/>
     <path d="m328.81 556.45h17.812v17.812h-17.812v-17.812z"/>
     <path d="m352.81 556.45h17.812v17.812h-17.812v-17.812z"/>
     <path d="m376.81 556.45h17.812v17.812h-17.812v-17.812z"/>
     <path d="m400.81 556.45h17.812v17.812h-17.812v-17.812z"/>
     <path d="m424.81 556.45h17.812v17.812h-17.812v-17.812z"/>
     <path d="m448.81 556.45h17.812v17.812h-17.812v-17.812z"/>
     <path d="m472.81 556.45h17.812v17.812h-17.812v-17.812z"/>
     <path d="m496.81 556.45h17.812v17.812h-17.812v-17.812z"/>
     <path d="m520.81 556.45h17.812v17.812h-17.812v-17.812z"/>
     <path d="m544.81 556.45h17.812v17.812h-17.812v-17.812z"/>
     <path d="m568.81 556.45h17.812v17.812h-17.812v-17.812z"/>
     <path d="m592.81 556.45h17.812v17.812h-17.812v-17.812z"/>
     <path d="m616.81 556.45h17.812v17.812h-17.812v-17.812z"/>
     <path d="m88.809 586.45h17.812v17.812h-17.812v-17.812z"/>
     <path d="m112.81 586.45h17.812v17.812h-17.812v-17.812z"/>
     <path d="m136.81 586.45h17.812v17.812h-17.812v-17.812z"/>
     <path d="m160.81 586.45h17.812v17.812h-17.812v-17.812z"/>
     <path d="m184.81 586.45h17.812v17.812h-17.812v-17.812z"/>
     <path d="m208.81 586.45h17.812v17.812h-17.812v-17.812z"/>
     <path d="m232.81 586.45h17.812v17.812h-17.812v-17.812z"/>
     <path d="m256.81 586.45h17.812v17.812h-17.812v-17.812z"/>
     <path d="m280.81 586.45h17.812v17.812h-17.812v-17.812z"/>
     <path d="m304.81 586.45h17.812v17.812h-17.812v-17.812z"/>
     <path d="m328.81 586.45h17.812v17.812h-17.812v-17.812z"/>
     <path d="m352.81 586.45h17.812v17.812h-17.812v-17.812z"/>
     <path d="m376.81 586.45h17.812v17.812h-17.812v-17.812z"/>
     <path d="m400.81 586.45h17.812v17.812h-17.812v-17.812z"/>
     <path d="m424.81 586.45h17.812v17.812h-17.812v-17.812z"/>
     <path d="m448.81 586.45h17.812v17.812h-17.812v-17.812z"/>
     <path d="m472.81 586.45h17.812v17.812h-17.812v-17.812z"/>
     <path d="m496.81 586.45h17.812v17.812h-17.812v-17.812z"/>
     <path d="m520.81 586.45h17.812v17.812h-17.812v-17.812z"/>
     <path d="m544.81 586.45h17.812v17.812h-17.812v-17.812z"/>
     <path d="m568.81 586.45h17.812v17.812h-17.812v-17.812z"/>
     <path d="m592.81 586.45h17.812v17.812h-17.812v-17.812z"/>
     <path d="m616.81 586.45h17.812v17.812h-17.812v-17.812z"/>
     <path d="m88.809 616.45h17.812v17.812h-17.812v-17.812z"/>
     <path d="m112.81 616.45h17.812v17.812h-17.812v-17.812z"/>
     <path d="m136.81 616.45h17.812v17.812h-17.812v-17.812z"/>
     <path d="m160.81 616.45h17.812v17.812h-17.812v-17.812z"/>
     <path d="m184.81 616.45h17.812v17.812h-17.812v-17.812z"/>
     <path d="m208.81 616.45h17.812v17.812h-17.812v-17.812z"/>
     <path d="m232.81 616.45h17.812v17.812h-17.812v-17.812z"/>
     <path d="m256.81 616.45h17.812v17.812h-17.812v-17.812z"/>
     <path d="m88.809 676.45h17.812v17.812h-17.812v-17.812z"/>
     <path d="m112.81 676.45h17.812v17.812h-17.812v-17.812z"/>
     <path d="m136.81 676.45h17.812v17.812h-17.812v-17.812z"/>
     <path d="m160.81 676.45h17.812v17.812h-17.812v-17.812z"/>
     <path d="m184.81 676.45h17.812v17.812h-17.812v-17.812z"/>
     <path d="m208.81 676.45h17.812v17.812h-17.812v-17.812z"/>
     <path d="m232.81 676.45h17.812v17.812h-17.812v-17.812z"/>
     <path d="m256.81 676.45h17.812v17.812h-17.812v-17.812z"/>
     <path d="m280.81 676.45h17.812v17.812h-17.812v-17.812z"/>
     <path d="m304.81 676.45h17.812v17.812h-17.812v-17.812z"/>
     <path d="m328.81 676.45h17.812v17.812h-17.812v-17.812z"/>
     <path d="m352.81 676.45h17.812v17.812h-17.812v-17.812z"/>
     <path d="m376.81 676.45h17.812v17.812h-17.812v-17.812z"/>
     <path d="m400.81 676.45h17.812v17.812h-17.812v-17.812z"/>
     <path d="m424.81 676.45h17.812v17.812h-17.812v-17.812z"/>
     <path d="m448.81 676.45h17.812v17.812h-17.812v-17.812z"/>
     <path d="m472.81 676.45h17.812v17.812h-17.812v-17.812z"/>
     <path d="m496.81 676.45h17.812v17.812h-17.812v-17.812z"/>
     <path d="m520.81 676.45h17.812v17.812h-17.812v-17.812z"/>
     <path d="m544.81 676.45h17.812v17.812h-17.812v-17.812z"/>
     <path d="m568.81 676.45h17.812v17.812h-17.812v-17.812z"/>
     <path d="m592.81 676.45h17.812v17.812h-17.812v-17.812z"/>
     <path d="m616.81 676.45h17.812v17.812h-17.812v-17.812z"/>
     <path d="m88.809 706.45h17.812v17.812h-17.812v-17.812z"/>
     <path d="m112.81 706.45h17.812v17.812h-17.812v-17.812z"/>
     <path d="m136.81 706.45h17.812v17.812h-17.812v-17.812z"/>
     <path d="m160.81 706.45h17.812v17.812h-17.812v-17.812z"/>
     <path d="m184.81 706.45h17.812v17.812h-17.812v-17.812z"/>
     <path d="m208.81 706.45h17.812v17.812h-17.812v-17.812z"/>
     <path d="m232.81 706.45h17.812v17.812h-17.812v-17.812z"/>
     <path d="m256.81 706.45h17.812v17.812h-17.812v-17.812z"/>
     <path d="m280.81 706.45h17.812v17.812h-17.812v-17.812z"/>
     <path d="m304.81 706.45h17.812v17.812h-17.812v-17.812z"/>
     <path d="m328.81 706.45h17.812v17.812h-17.812v-17.812z"/>
     <path d="m352.81 706.45h17.812v17.812h-17.812v-17.812z"/>
     <path d="m376.81 706.45h17.812v17.812h-17.812v-17.812z"/>
     <path d="m400.81 706.45h17.812v17.812h-17.812v-17.812z"/>
     <path d="m424.81 706.45h17.812v17.812h-17.812v-17.812z"/>
     <path d="m448.81 706.45h17.812v17.812h-17.812v-17.812z"/>
     <path d="m472.81 706.45h17.812v17.812h-17.812v-17.812z"/>
     <path d="m496.81 706.45h17.812v17.812h-17.812v-17.812z"/>
     <path d="m520.81 706.45h17.812v17.812h-17.812v-17.812z"/>
     <path d="m544.81 706.45h17.812v17.812h-17.812v-17.812z"/>
     <path d="m568.81 706.45h17.812v17.812h-17.812v-17.812z"/>
     <path d="m592.81 706.45h17.812v17.812h-17.812v-17.812z"/>
     <path d="m616.81 706.45h17.812v17.812h-17.812v-17.812z"/>
     <path d="m88.809 736.45h17.812v17.812h-17.812v-17.812z"/>
     <path d="m112.81 736.45h17.812v17.812h-17.812v-17.812z"/>
     <path d="m136.81 736.45h17.812v17.812h-17.812v-17.812z"/>
     <path d="m160.81 736.45h17.812v17.812h-17.812v-17.812z"/>
     <path d="m184.81 736.45h17.812v17.812h-17.812v-17.812z"/>
     <path d="m208.81 736.45h17.812v17.812h-17.812v-17.812z"/>
     <path d="m232.81 736.45h17.812v17.812h-17.812v-17.812z"/>
     <path d="m256.81 736.45h17.812v17.812h-17.812v-17.812z"/>
     <path d="m280.81 736.45h17.812v17.812h-17.812v-17.812z"/>
     <path d="m304.81 736.45h17.812v17.812h-17.812v-17.812z"/>
     <path d="m328.81 736.45h17.812v17.812h-17.812v-17.812z"/>
     <path d="m352.81 736.45h17.812v17.812h-17.812v-17.812z"/>
     <path d="m376.81 736.45h17.812v17.812h-17.812v-17.812z"/>
     <path d="m400.81 736.45h17.812v17.812h-17.812v-17.812z"/>
     <path d="m424.81 736.45h17.812v17.812h-17.812v-17.812z"/>
     <path d="m448.81 736.45h17.812v17.812h-17.812v-17.812z"/>
     <path d="m472.81 736.45h17.812v17.812h-17.812v-17.812z"/>
     <path d="m496.81 736.45h17.812v17.812h-17.812v-17.812z"/>
     <path d="m520.81 736.45h17.812v17.812h-17.812v-17.812z"/>
     <path d="m544.81 736.45h17.812v17.812h-17.812v-17.812z"/>
     <path d="m568.81 736.45h17.812v17.812h-17.812v-17.812z"/>
     <path d="m592.81 736.45h17.812v17.812h-17.812v-17.812z"/>
     <path d="m616.81 736.45h17.812v17.812h-17.812v-17.812z"/>
     <path d="m88.809 766.45h17.812v17.812h-17.812v-17.812z"/>
     <path d="m112.81 766.45h17.812v17.812h-17.812v-17.812z"/>
     <path d="m136.81 766.45h17.812v17.812h-17.812v-17.812z"/>
     <path d="m160.81 766.45h17.812v17.812h-17.812v-17.812z"/>
     <path d="m184.81 766.45h17.812v17.812h-17.812v-17.812z"/>
     <path d="m208.81 766.45h17.812v17.812h-17.812v-17.812z"/>
     <path d="m232.81 766.45h17.812v17.812h-17.812v-17.812z"/>
     <path d="m256.81 766.45h17.812v17.812h-17.812v-17.812z"/>
     <path d="m280.81 766.45h17.812v17.812h-17.812v-17.812z"/>
    </g>
    <g transform="translate(473.02 -5.6815)">
     <path d="m88.809 106.45h17.812v17.812h-17.812v-17.812z"/>
     <path d="m112.81 106.45h17.812v17.812h-17.812v-17.812z"/>
     <path d="m136.81 106.45h17.812v17.812h-17.812v-17.812z"/>
     <path d="m160.81 106.45h17.812v17.812h-17.812v-17.812z"/>
     <path d="m184.81 106.45h17.812v17.812h-17.812v-17.812z"/>
     <path d="m208.81 106.45h17.812v17.812h-17.812v-17.812z"/>
     <path d="m88.809 136.45h17.812v17.812h-17.812v-17.812z"/>
     <path d="m112.81 136.45h17.812v17.812h-17.812v-17.812z"/>
     <path d="m136.81 136.45h17.812v17.812h-17.812v-17.812z"/>
     <path d="m160.81 136.45h17.812v17.812h-17.812v-17.812z"/>
     <path d="m184.81 136.45h17.812v17.812h-17.812v-17.812z"/>
     <path d="m208.81 136.45h17.812v17.812h-17.812v-17.812z"/>
    </g>
   </g>
  </g>
 </g>
</svg>
